<svg width="128" height="128" viewBox="0 0 128 128" fill="none" xmlns="http://www.w3.org/2000/svg">
<path d="M108 0H20C8.9543 0 0 8.9543 0 20V108C0 119.046 8.9543 128 20 128H108C119.046 128 128 119.046 128 108V64V20C128 8.9543 119.046 0 108 0Z" fill="#FFB734"/>
<path d="M82 49C82 45.1975 80.68 42.2952 78.7148 40.3516C76.7521 38.4106 73.7123 37 69.5 37H57V61H69.5C73.7123 61 76.7521 59.5894 78.7148 57.6484C80.68 55.7048 82 52.8025 82 49ZM96 49C96 56.1974 93.4193 62.7952 88.5596 67.6016C83.6973 72.4104 76.9874 75 69.5 75H57V103C57 106.866 53.866 110 50 110C46.134 110 43 106.866 43 103V30C43 26.134 46.134 23 50 23H69.5C76.9874 23 83.6973 25.5896 88.5596 30.3984C93.4193 35.2048 96 41.8026 96 49Z" fill="white"/>
</svg>
