<svg width="438" height="168" viewBox="0 0 438 168" fill="none" xmlns="http://www.w3.org/2000/svg">
<path d="M196.225 110.767C192.185 110.767 188.708 109.949 185.793 108.312C182.895 106.659 180.662 104.324 179.094 101.307C177.526 98.2727 176.742 94.6847 176.742 90.5426C176.742 86.5028 177.526 82.9574 179.094 79.9062C180.662 76.8551 182.87 74.4773 185.716 72.7727C188.58 71.0682 191.938 70.2159 195.79 70.2159C198.381 70.2159 200.793 70.6335 203.026 71.4688C205.276 72.2869 207.236 73.5227 208.907 75.1761C210.594 76.8295 211.907 78.9091 212.844 81.4148C213.782 83.9034 214.25 86.8182 214.25 90.1591V93.1506H181.088V86.4006H203.998C203.998 84.8324 203.657 83.4432 202.975 82.233C202.293 81.0227 201.347 80.0767 200.137 79.3949C198.944 78.696 197.554 78.3466 195.969 78.3466C194.316 78.3466 192.85 78.7301 191.571 79.4972C190.31 80.2472 189.321 81.2614 188.605 82.5398C187.89 83.8011 187.523 85.2074 187.506 86.7585V93.1761C187.506 95.1193 187.864 96.7983 188.58 98.2131C189.313 99.6278 190.344 100.719 191.674 101.486C193.003 102.253 194.58 102.636 196.404 102.636C197.614 102.636 198.722 102.466 199.728 102.125C200.733 101.784 201.594 101.273 202.31 100.591C203.026 99.9091 203.571 99.0739 203.946 98.0852L214.02 98.75C213.509 101.17 212.461 103.284 210.875 105.091C209.307 106.881 207.279 108.278 204.79 109.284C202.319 110.273 199.463 110.767 196.225 110.767ZM232.557 110.741C230.051 110.741 227.819 110.307 225.858 109.438C223.898 108.551 222.347 107.247 221.205 105.526C220.08 103.787 219.517 101.622 219.517 99.0312C219.517 96.8494 219.918 95.017 220.719 93.5341C221.52 92.0511 222.611 90.858 223.992 89.9545C225.373 89.0511 226.941 88.3693 228.696 87.9091C230.469 87.4489 232.327 87.125 234.27 86.9375C236.554 86.6989 238.395 86.4773 239.793 86.2727C241.191 86.0511 242.205 85.7273 242.836 85.3011C243.466 84.875 243.782 84.2443 243.782 83.4091V83.2557C243.782 81.6364 243.27 80.3835 242.248 79.4972C241.242 78.6108 239.81 78.1676 237.952 78.1676C235.992 78.1676 234.432 78.6023 233.273 79.4716C232.114 80.3239 231.347 81.3977 230.972 82.6932L220.898 81.875C221.409 79.4886 222.415 77.4261 223.915 75.6875C225.415 73.9318 227.35 72.5852 229.719 71.6477C232.105 70.6932 234.867 70.2159 238.003 70.2159C240.185 70.2159 242.273 70.4716 244.267 70.983C246.279 71.4943 248.06 72.2869 249.611 73.3608C251.179 74.4347 252.415 75.8153 253.319 77.5028C254.222 79.1733 254.674 81.1761 254.674 83.5114V110H244.344V104.554H244.037C243.407 105.781 242.563 106.864 241.506 107.801C240.449 108.722 239.179 109.446 237.696 109.974C236.213 110.486 234.5 110.741 232.557 110.741ZM235.676 103.224C237.279 103.224 238.694 102.909 239.921 102.278C241.148 101.631 242.111 100.761 242.81 99.6705C243.509 98.5795 243.858 97.3437 243.858 95.9631V91.7955C243.517 92.017 243.049 92.2216 242.452 92.4091C241.873 92.5795 241.216 92.7415 240.483 92.8949C239.75 93.0312 239.017 93.1591 238.284 93.2784C237.551 93.3807 236.887 93.4744 236.29 93.5597C235.012 93.7472 233.895 94.0455 232.941 94.4545C231.986 94.8636 231.245 95.4176 230.716 96.1165C230.188 96.7983 229.924 97.6506 229.924 98.6733C229.924 100.156 230.461 101.29 231.534 102.074C232.625 102.841 234.006 103.224 235.676 103.224ZM277.596 110.639C274.613 110.639 271.911 109.872 269.49 108.338C267.087 106.787 265.178 104.511 263.763 101.511C262.365 98.4943 261.667 94.7955 261.667 90.4148C261.667 85.9148 262.391 82.1733 263.84 79.1903C265.289 76.1903 267.215 73.9489 269.618 72.4659C272.039 70.9659 274.689 70.2159 277.57 70.2159C279.769 70.2159 281.601 70.5909 283.067 71.3409C284.55 72.0739 285.743 72.9943 286.647 74.1023C287.567 75.1932 288.266 76.267 288.743 77.3239H289.076V57.6364H299.942V110H289.203V103.71H288.743C288.232 104.801 287.507 105.884 286.57 106.957C285.65 108.014 284.448 108.892 282.965 109.591C281.499 110.29 279.709 110.639 277.596 110.639ZM281.047 101.972C282.803 101.972 284.286 101.494 285.496 100.54C286.723 99.5682 287.661 98.2131 288.309 96.4744C288.973 94.7358 289.306 92.6989 289.306 90.3636C289.306 88.0284 288.982 86 288.334 84.2784C287.686 82.5568 286.749 81.2273 285.522 80.2898C284.294 79.3523 282.803 78.8835 281.047 78.8835C279.257 78.8835 277.749 79.3693 276.522 80.3409C275.294 81.3125 274.365 82.6591 273.735 84.3807C273.104 86.1023 272.789 88.0966 272.789 90.3636C272.789 92.6477 273.104 94.6676 273.735 96.4233C274.382 98.1619 275.311 99.5256 276.522 100.514C277.749 101.486 279.257 101.972 281.047 101.972ZM318.767 98.6989L318.792 85.6335H320.377L332.957 70.7273H345.46L328.559 90.4659H325.977L318.767 98.6989ZM308.897 110V57.6364H319.789V110H308.897ZM333.443 110L321.886 92.8949L329.147 85.1989L346.201 110H333.443ZM350.804 124.727V70.7273H361.542V77.3239H362.028C362.505 76.267 363.196 75.1932 364.099 74.1023C365.02 72.9943 366.213 72.0739 367.679 71.3409C369.162 70.5909 371.002 70.2159 373.201 70.2159C376.065 70.2159 378.707 70.9659 381.127 72.4659C383.548 73.9489 385.483 76.1903 386.931 79.1903C388.38 82.1733 389.105 85.9148 389.105 90.4148C389.105 94.7955 388.397 98.4943 386.983 101.511C385.585 104.511 383.676 106.787 381.255 108.338C378.852 109.872 376.159 110.639 373.176 110.639C371.062 110.639 369.264 110.29 367.781 109.591C366.315 108.892 365.113 108.014 364.176 106.957C363.238 105.884 362.522 104.801 362.028 103.71H361.696V124.727H350.804ZM361.466 90.3636C361.466 92.6989 361.789 94.7358 362.437 96.4744C363.085 98.2131 364.022 99.5682 365.25 100.54C366.477 101.494 367.968 101.972 369.724 101.972C371.497 101.972 372.997 101.486 374.224 100.514C375.451 99.5256 376.38 98.1619 377.011 96.4233C377.659 94.6676 377.983 92.6477 377.983 90.3636C377.983 88.0966 377.667 86.1023 377.037 84.3807C376.406 82.6591 375.477 81.3125 374.25 80.3409C373.022 79.3693 371.514 78.8835 369.724 78.8835C367.951 78.8835 366.451 79.3523 365.224 80.2898C364.014 81.2273 363.085 82.5568 362.437 84.2784C361.789 86 361.466 88.0284 361.466 90.3636Z" fill="black"/>
<path d="M128 20H40C28.9543 20 20 28.9543 20 40V128C20 139.046 28.9543 148 40 148H128C139.046 148 148 139.046 148 128V84V40C148 28.9543 139.046 20 128 20Z" fill="#FFB734"/>
<path d="M70 123V50H89.5C101.2 50 109 58 109 69C109 80 101.2 88 89.5 88H70" stroke="white" stroke-width="10" stroke-linecap="round" stroke-linejoin="round"/>
</svg>
