<svg width="640" height="128" viewBox="0 0 640 128" fill="none" xmlns="http://www.w3.org/2000/svg">
<path d="M108 0H20C8.9543 0 0 8.9543 0 20V108C0 119.046 8.9543 128 20 128H108C119.046 128 128 119.046 128 108V20C128 8.9543 119.046 0 108 0Z" fill="#FFB734"/>
<path d="M44 105V22H64C76 22 84 30 84 41C84 52 76 60 64 60H44" stroke="white" stroke-width="8.35" stroke-linecap="round" stroke-linejoin="round"/>
<path d="M172.244 90.767C168.205 90.767 164.727 89.9489 161.812 88.3125C158.915 86.6591 156.682 84.3239 155.114 81.3068C153.545 78.2727 152.761 74.6847 152.761 70.5426C152.761 66.5028 153.545 62.9574 155.114 59.9062C156.682 56.8551 158.889 54.4773 161.736 52.7727C164.599 51.0682 167.957 50.2159 171.81 50.2159C174.401 50.2159 176.813 50.6335 179.045 51.4688C181.295 52.2869 183.256 53.5227 184.926 55.1761C186.614 56.8295 187.926 58.9091 188.864 61.4148C189.801 63.9034 190.27 66.8182 190.27 70.1591V73.1506H157.108V66.4006H180.017C180.017 64.8324 179.676 63.4432 178.994 62.233C178.313 61.0227 177.366 60.0767 176.156 59.3949C174.963 58.696 173.574 58.3466 171.989 58.3466C170.335 58.3466 168.869 58.7301 167.591 59.4972C166.33 60.2472 165.341 61.2614 164.625 62.5398C163.909 63.8011 163.543 65.2074 163.526 66.7585V73.1761C163.526 75.1193 163.884 76.7983 164.599 78.2131C165.332 79.6278 166.364 80.7188 167.693 81.4858C169.023 82.2528 170.599 82.6364 172.423 82.6364C173.634 82.6364 174.741 82.4659 175.747 82.125C176.753 81.7841 177.614 81.2727 178.33 80.5909C179.045 79.9091 179.591 79.0739 179.966 78.0852L190.04 78.75C189.528 81.1705 188.48 83.2841 186.895 85.0909C185.327 86.8807 183.298 88.2784 180.81 89.2841C178.338 90.2727 175.483 90.767 172.244 90.767ZM208.577 90.7415C206.071 90.7415 203.838 90.3068 201.878 89.4375C199.918 88.5511 198.366 87.2472 197.224 85.5256C196.099 83.7869 195.537 81.6222 195.537 79.0312C195.537 76.8494 195.938 75.017 196.739 73.5341C197.54 72.0511 198.631 70.858 200.011 69.9545C201.392 69.0511 202.96 68.3693 204.716 67.9091C206.489 67.4489 208.347 67.125 210.29 66.9375C212.574 66.6989 214.415 66.4773 215.812 66.2727C217.21 66.0511 218.224 65.7273 218.855 65.3011C219.486 64.875 219.801 64.2443 219.801 63.4091V63.2557C219.801 61.6364 219.29 60.3835 218.267 59.4972C217.261 58.6108 215.83 58.1676 213.972 58.1676C212.011 58.1676 210.452 58.6023 209.293 59.4716C208.134 60.3239 207.366 61.3977 206.991 62.6932L196.918 61.875C197.429 59.4886 198.435 57.4261 199.935 55.6875C201.435 53.9318 203.369 52.5852 205.739 51.6477C208.125 50.6932 210.886 50.2159 214.023 50.2159C216.205 50.2159 218.293 50.4716 220.287 50.983C222.298 51.4943 224.08 52.2869 225.631 53.3608C227.199 54.4347 228.435 55.8153 229.338 57.5028C230.241 59.1733 230.693 61.1761 230.693 63.5114V90H220.364V84.554H220.057C219.426 85.7812 218.582 86.8636 217.526 87.8011C216.469 88.7216 215.199 89.446 213.716 89.9744C212.233 90.4858 210.52 90.7415 208.577 90.7415ZM211.696 83.2244C213.298 83.2244 214.713 82.9091 215.94 82.2784C217.168 81.6307 218.131 80.7614 218.83 79.6705C219.528 78.5795 219.878 77.3437 219.878 75.9631V71.7955C219.537 72.017 219.068 72.2216 218.472 72.4091C217.892 72.5795 217.236 72.7415 216.503 72.8949C215.77 73.0312 215.037 73.1591 214.304 73.2784C213.571 73.3807 212.906 73.4744 212.31 73.5597C211.031 73.7472 209.915 74.0455 208.96 74.4545C208.006 74.8636 207.264 75.4176 206.736 76.1165C206.207 76.7983 205.943 77.6506 205.943 78.6733C205.943 80.1562 206.48 81.2898 207.554 82.0739C208.645 82.8409 210.026 83.2244 211.696 83.2244ZM253.615 90.6392C250.632 90.6392 247.93 89.8722 245.51 88.3381C243.107 86.7869 241.197 84.5114 239.783 81.5114C238.385 78.4943 237.686 74.7955 237.686 70.4148C237.686 65.9148 238.411 62.1733 239.859 59.1903C241.308 56.1903 243.234 53.9489 245.638 52.4659C248.058 50.9659 250.709 50.2159 253.589 50.2159C255.788 50.2159 257.621 50.5909 259.087 51.3409C260.57 52.0739 261.763 52.9943 262.666 54.1023C263.587 55.1932 264.286 56.267 264.763 57.3239H265.095V37.6364H275.962V90H265.223V83.7102H264.763C264.251 84.8011 263.527 85.8835 262.589 86.9574C261.669 88.0142 260.467 88.892 258.984 89.5909C257.518 90.2898 255.729 90.6392 253.615 90.6392ZM257.067 81.9716C258.822 81.9716 260.305 81.4943 261.516 80.5398C262.743 79.5682 263.68 78.2131 264.328 76.4744C264.993 74.7358 265.325 72.6989 265.325 70.3636C265.325 68.0284 265.001 66 264.354 64.2784C263.706 62.5568 262.768 61.2273 261.541 60.2898C260.314 59.3523 258.822 58.8835 257.067 58.8835C255.277 58.8835 253.768 59.3693 252.541 60.3409C251.314 61.3125 250.385 62.6591 249.754 64.3807C249.124 66.1023 248.808 68.0966 248.808 70.3636C248.808 72.6477 249.124 74.6676 249.754 76.4233C250.402 78.1619 251.331 79.5256 252.541 80.5142C253.768 81.4858 255.277 81.9716 257.067 81.9716ZM294.786 78.6989L294.812 65.6335H296.397L308.977 50.7273H321.479L304.579 70.4659H301.996L294.786 78.6989ZM284.917 90V37.6364H295.809V90H284.917ZM309.462 90L297.906 72.8949L305.167 65.1989L322.221 90H309.462ZM326.823 104.727V50.7273H337.562V57.3239H338.048C338.525 56.267 339.215 55.1932 340.119 54.1023C341.039 52.9943 342.232 52.0739 343.698 51.3409C345.181 50.5909 347.022 50.2159 349.221 50.2159C352.085 50.2159 354.727 50.9659 357.147 52.4659C359.567 53.9489 361.502 56.1903 362.951 59.1903C364.4 62.1733 365.124 65.9148 365.124 70.4148C365.124 74.7955 364.417 78.4943 363.002 81.5114C361.604 84.5114 359.695 86.7869 357.275 88.3381C354.871 89.8722 352.178 90.6392 349.195 90.6392C347.082 90.6392 345.283 90.2898 343.8 89.5909C342.335 88.892 341.133 88.0142 340.195 86.9574C339.258 85.8835 338.542 84.8011 338.048 83.7102H337.715V104.727H326.823ZM337.485 70.3636C337.485 72.6989 337.809 74.7358 338.457 76.4744C339.104 78.2131 340.042 79.5682 341.269 80.5398C342.496 81.4943 343.988 81.9716 345.744 81.9716C347.516 81.9716 349.016 81.4858 350.244 80.5142C351.471 79.5256 352.4 78.1619 353.031 76.4233C353.678 74.6676 354.002 72.6477 354.002 70.3636C354.002 68.0966 353.687 66.1023 353.056 64.3807C352.425 62.6591 351.496 61.3125 350.269 60.3409C349.042 59.3693 347.533 58.8835 345.744 58.8835C343.971 58.8835 342.471 59.3523 341.244 60.2898C340.033 61.2273 339.104 62.5568 338.457 64.2784C337.809 66 337.485 68.0284 337.485 70.3636Z" fill="black"/>
</svg>
